<svg xmlns="http://www.w3.org/2000/svg" style="display:none">
    <symbol id="icon-share" viewBox="0 0 24 24">
        <path d="M12 16V4"/>
        <path d="M8 8l4-4 4 4"/>
        <path d="M5 12v6h14v-6"/>
    </symbol>
    <symbol id="icon-collapse-left" viewBox="0 0 24 24">
        <path d="M16 5l-6 7 6 7"/>
        <path d="M7 4v16"/>
    </symbol>
    <symbol id="icon-expand-right" viewBox="0 0 24 24">
        <path d="M8 5l6 7-6 7"/>
        <path d="M17 4v16"/>
    </symbol>
    <symbol id="icon-play" viewBox="0 0 24 24">
        <path d="M8 6l10 6-10 6z"/>
    </symbol>
    <symbol id="icon-stop" viewBox="0 0 24 24">
        <rect x="7" y="7" width="10" height="10"/>
    </symbol>
    <symbol id="icon-restart" viewBox="0 0 24 24">
        <path d="M20 12a8 8 0 1 1-2.3-5.7"/>
        <path d="M20 5v5h-5"/>
    </symbol>
    <symbol id="icon-pause" viewBox="0 0 24 24">
        <path d="M9 6v12"/>
        <path d="M15 6v12"/>
    </symbol>
    <symbol id="icon-resume" viewBox="0 0 24 24">
        <path d="M8 6l10 6-10 6z"/>
    </symbol>
    <symbol id="icon-snapshot" viewBox="0 0 24 24">
        <rect x="4" y="6" width="16" height="12" rx="2" ry="2"/>
        <circle cx="12" cy="12" r="3"/>
        <path d="M8 6l1.2-2h5.6L16 6"/>
    </symbol>
    <symbol id="icon-divider" viewBox="0 0 24 24">
        <path d="M5 12h4"/>
        <path d="M15 12h4"/>
        <circle cx="12" cy="12" r="1.8"/>
    </symbol>
    <symbol id="icon-clear" viewBox="0 0 24 24">
        <path d="M4 7h16"/>
        <path d="M9 7V5h6v2"/>
        <path d="M8 7l1 12h6l1-12"/>
        <path d="M10.5 10v6"/>
        <path d="M13.5 10v6"/>
    </symbol>
    <symbol id="icon-settings" viewBox="0 0 24 24">
        <path d="M12 8.5a3.5 3.5 0 1 0 0 7 3.5 3.5 0 0 0 0-7z"/>
        <path d="M19 12l2-1-1-3-2 .2-1.2-1.6.7-1.9-3-1.3-1.1 1.7h-2.2L10 3.4 7 4.7l.7 1.9L6.5 8.2 4.5 8l-1 3 2 1v2l-2 1 1 3 2-.2 1.2 1.6-.7 1.9 3 1.3 1.1-1.7h2.2l1.1 1.7 3-1.3-.7-1.9 1.2-1.6 2 .2 1-3-2-1z"/>
    </symbol>
    <symbol id="icon-expand" viewBox="0 0 24 24">
        <path d="M8 4H4v4"/>
        <path d="M16 4h4v4"/>
        <path d="M8 20H4v-4"/>
        <path d="M16 20h4v-4"/>
        <path d="M4 4l5 5"/>
        <path d="M20 4l-5 5"/>
        <path d="M4 20l5-5"/>
        <path d="M20 20l-5-5"/>
    </symbol>
    <symbol id="icon-contract" viewBox="0 0 24 24">
        <path d="M9 9H4V4"/>
        <path d="M15 9h5V4"/>
        <path d="M9 15H4v5"/>
        <path d="M15 15h5v5"/>
        <path d="M4 4l5 5"/>
        <path d="M20 4l-5 5"/>
        <path d="M4 20l5-5"/>
        <path d="M20 20l-5-5"/>
    </symbol>
    <symbol id="icon-arrow-up" viewBox="0 0 24 24">
        <path d="M12 18V6"/>
        <path d="M7 11l5-5 5 5"/>
    </symbol>
    <symbol id="icon-arrow-down" viewBox="0 0 24 24">
        <path d="M12 6v12"/>
        <path d="M7 13l5 5 5-5"/>
    </symbol>
    <symbol id="icon-close" viewBox="0 0 24 24">
        <path d="M6 6l12 12"/>
        <path d="M18 6L6 18"/>
    </symbol>
    <symbol id="icon-plus" viewBox="0 0 24 24">
        <path d="M12 5v14"/>
        <path d="M5 12h14"/>
    </symbol>
    <symbol id="icon-grip" viewBox="0 0 24 24">
        <circle cx="8" cy="8" r="1.4"/>
        <circle cx="8" cy="12" r="1.4"/>
        <circle cx="8" cy="16" r="1.4"/>
        <circle cx="12" cy="8" r="1.4"/>
        <circle cx="12" cy="12" r="1.4"/>
        <circle cx="12" cy="16" r="1.4"/>
        <circle cx="16" cy="8" r="1.4"/>
        <circle cx="16" cy="12" r="1.4"/>
        <circle cx="16" cy="16" r="1.4"/>
    </symbol>
    <symbol id="icon-check" viewBox="0 0 24 24">
        <path d="M5 12l5 5 9-10"/>
    </symbol>
    <symbol id="icon-alert" viewBox="0 0 24 24">
        <circle cx="12" cy="12" r="9"/>
        <path d="M9 9l6 6"/>
        <path d="M15 9l-6 6"/>
    </symbol>
    <symbol id="icon-monitor" viewBox="0 0 24 24">
        <rect x="4" y="5" width="16" height="11" rx="2" ry="2"/>
        <path d="M9 20h6"/>
        <path d="M12 16v4"/>
        <path d="M7 12l2-2 2 2 3-3 3 3"/>
    </symbol>
    <symbol id="icon-loading" viewBox="0 0 24 24">
        <path d="M12 4a8 8 0 1 1-8 8"/>
    </symbol>
</svg>
