<svg xmlns="http://www.w3.org/2000/svg" viewBox="0 0 64 64">
    <title>ww-ssh 标签图标</title>
    <defs>
        <linearGradient id="bg" x1="8" y1="6" x2="56" y2="58" gradientUnits="userSpaceOnUse">
            <stop offset="0" stop-color="#17344d"/>
            <stop offset="1" stop-color="#1f80d8"/>
        </linearGradient>
        <linearGradient id="screen" x1="14" y1="14" x2="50" y2="50" gradientUnits="userSpaceOnUse">
            <stop offset="0" stop-color="#f7fbff"/>
            <stop offset="1" stop-color="#d8ecff"/>
        </linearGradient>
        <linearGradient id="accent" x1="19" y1="44" x2="47" y2="44" gradientUnits="userSpaceOnUse">
            <stop offset="0" stop-color="#62d2ff"/>
            <stop offset="1" stop-color="#8ef0c0"/>
        </linearGradient>
    </defs>
    <rect x="2" y="2" width="60" height="60" rx="18" fill="url(#bg)"/>
    <path d="M16 14h32c2.761 0 5 2.239 5 5v24c0 2.761-2.239 5-5 5H16c-2.761 0-5-2.239-5-5V19c0-2.761 2.239-5 5-5z" fill="url(#screen)" opacity="0.98"/>
    <path d="M11 22h42" stroke="#9ec7e2" stroke-width="2.4"/>
    <circle cx="17" cy="18" r="1.8" fill="#1f80d8"/>
    <circle cx="23" cy="18" r="1.8" fill="#62d2ff"/>
    <circle cx="29" cy="18" r="1.8" fill="#8ef0c0"/>
    <path d="M24 29l-6 6 6 6" fill="none" stroke="#17344d" stroke-linecap="round" stroke-linejoin="round" stroke-width="3.8"/>
    <path d="M30 43h18" stroke="url(#accent)" stroke-linecap="round" stroke-width="4.8"/>
    <path d="M31 28l3.8 14 3.8-10 3.8 10 3.8-14" fill="none" stroke="#1f80d8" stroke-linecap="round" stroke-linejoin="round" stroke-width="3.8"/>
</svg>
